inDegrees=yes
name=ik_lifting_orientations
DataType=double
version=3
OpenSimVersion=4.5-2024-01-10-34fd6af
endheader
time	pelvis_tilt	pelvis_list	pelvis_rotation	pelvis_tx	pelvis_ty	pelvis_tz	hip_flexion_r	hip_adduction_r	hip_rotation_r	knee_angle_r	knee_angle_r_beta	ankle_angle_r	subtalar_angle_r	mtp_angle_r	hip_flexion_l	hip_adduction_l	hip_rotation_l	knee_angle_l	knee_angle_l_beta	ankle_angle_l	subtalar_angle_l	mtp_angle_l	lumbar_extension	lumbar_bending	lumbar_rotation	arm_flex_r	arm_add_r	arm_rot_r	elbow_flex_r	pro_sup_r	wrist_flex_r	wrist_dev_r	arm_flex_l	arm_add_l	arm_rot_l	elbow_flex_l	pro_sup_l	wrist_flex_l	wrist_dev_l
0.02	-0.004990145290827056	0.002109195818466295	-89.48802030569311	0	0.9399999998679526	0	45.34134846221681	-10.7533039693258	0	60.02921739981454	1.047707491022233	-5.356046453574986	0	0	45.34134846221681	-10.7533039693258	0	60.02921739981454	1.047707491022233	-5.356046453574986	0	0	-0.005213714457141237	0.01165575642696864	0.01394795549843466	-0.2021344351020522	-0.05498173013692306	-0.01584329382539246	0.4402669641658739	1.893188806757767	0	0	0	-11.57057894513461	0	88.15290347287967	1.893188806757767	0	0
0.03	0.02141782792524331	0.006944669985327129	-89.66575273493068	0	0.9399999998679526	0	45.33501810280401	-10.71101195461394	0	60.02878995622852	1.047700030724291	-5.331366418132991	0	0	45.33501810280401	-10.71101195461394	0	60.02878995622852	1.047700030724291	-5.331366418132991	0	0	0.005397263314983112	-0.01656923873728606	0.2443273599379454	-0.2311811611747235	-0.08643966115393562	-0.0615983553930123	0.4842321699106711	1.868297647750967	0	0	0	-11.6041391862476	0	88.17718592854854	1.868297647750967	0	0
0.04	0.02827327268525651	0.005928300841786808	-89.68582999327712	0	0.9399999998679526	0	45.33497634160386	-10.71070313631446	0	60.02878714633303	1.047699981682362	-5.331178829024856	0	0	45.33497634160386	-10.71070313631446	0	60.02878714633303	1.047699981682362	-5.331178829024856	0	0	0.009368486173360733	-0.02792971379598585	0.2107475638885047	-0.2380244043047738	-0.1639494343201059	0.04266404865996252	0.4929793447557821	1.868135394660836	0	0	0	-11.60435648825878	0	88.17734421352978	1.868135394660836	0	0
0.05	0.03636911139102209	-0.02228989874224264	-89.90900374521914	0	0.9399999998679526	0	45.3254530011607	-10.64729819244344	0	60.02814400133912	1.047688756684651	-5.29428808645836	0	0	45.3254530011607	-10.64729819244344	0	60.02814400133912	1.047688756684651	-5.29428808645836	0	0	-0.004482622484669449	-0.02521377195000257	0.4214414373758754	-0.4897866185150839	-0.2257158533565981	0.08025087170203499	1.011302320686678	1.830686394189245	0	0	0	-11.65484915537253	0	88.21387741203218	1.830686394189245	0	0
0.06	-0.002296110161172973	-0.05199925978103598	-89.729732135303	0	0.9399999998679526	0	45.32536264870436	-10.64667416541338	0	60.02813786935696	1.047688649661373	-5.293918555310009	0	0	45.32536264870436	-10.64667416541338	0	60.02813786935696	1.047688649661373	-5.293918555310009	0	0	0.02178114480533232	0.003896046348553823	0.2467345582289353	-0.2898274071708398	-0.1653459940525794	0.1414695637413032	0.5430478105374199	1.830331970508837	0	0	0	-11.65532672635615	0	88.214223168245	1.830331970508837	0	0
0.07000000000000001	0.06690231588864468	-0.04055030396313417	-90.28781452806976	0	0.9399999998679526	0	45.32528626451078	-10.64616317407888	0	60.0281325536812	1.047688556885329	-5.293617819154376	0	0	45.32528626451078	-10.64616317407888	0	60.0281325536812	1.047688556885329	-5.293617819154376	0	0	-0.04266625800033221	-0.06627241840195734	0.7427558501446635	-0.2109479093828292	-0.1765430783108208	0.3174276834118516	0.6486389054588405	1.83002939957876	0	0	0	-11.65573780704413	0	88.21451834005833	1.83002939957876	0	0
0.08	0.08816404743321789	-0.06854772345635905	-90.38064884864467	0	0.9399999998679526	0	45.32523209485712	-10.64578829903227	0	60.02812888596588	1.04768849287162	-5.293395797177227	0	0	45.32523209485712	-10.64578829903227	0	60.02812888596588	1.04768849287162	-5.293395797177227	0	0	-0.06918897492802946	-0.08936421991068694	0.7745167279397671	-0.1873919504125626	-0.2360126435614489	0.5320741386421849	0.781855542758117	1.829817081311708	0	0	0	-11.65602369152928	0	88.2147254660445	1.829817081311708	0	0
0.09	0.110480723560361	-0.09115877472161656	-90.46759484992616	0	0.9399999998679526	0	45.32519001202416	-10.64549755901029	0	60.02812603341327	1.047688443085185	-5.293223673016736	0	0	45.32519001202416	-10.64549755901029	0	60.02812603341327	1.047688443085185	-5.293223673016736	0	0	-0.09187877481640003	-0.1182032790813136	0.8019796611165364	-0.1432587373960813	-0.3597775333863026	0.7205254836737273	0.8854824590038104	1.829652060700537	0	0	0	-11.65624597631725	0	88.21488645105502	1.829652060700537	0	0
0.1	0.08514574311538813	0.02555589912955761	-90.47406191667039	0	0.9399999998679526	0	45.32515075449952	-10.6452267193846	0	60.02812336984744	1.047688396597192	-5.293063383021677	0	0	45.32515075449952	-10.6452267193846	0	60.02812336984744	1.047688396597192	-5.293063383021677	0	0	-0.04963605689191409	-0.1021918906227195	0.8079647776845709	-0.02759131466255784	-0.4986726301148442	0.8647341659147891	1.009969281257092	1.829498058950723	0	0	0	-11.65645348610126	0	88.21503668667789	1.829498058950723	0	0
0.11	0.06959813330415156	0.02581114922452165	-90.60401765489857	0	0.9399999998679526	0	45.32511730541302	-10.64499687248775	0	60.02812109399699	1.047688356876108	-5.292927474474125	0	0	45.32511730541302	-10.64499687248775	0	60.02812109399699	1.047688356876108	-5.292927474474125	0	0	-0.04477307282030018	-0.0870306726000248	0.8700795833554269	0.0007832571072487341	-0.6279541743066108	1.110211622996469	1.092426506257052	1.829366695802276	0	0	0	-11.65663065612879	0	88.21516483734271	1.829366695802276	0	0
0.12	0.0516824117971691	0.1418337557904916	-90.78482878937953	0	0.9399999998679526	0	45.32506012618354	-10.64461144139344	0	60.02811714306867	1.0476882879194	-5.292700394187906	0	0	45.32506012618354	-10.64461144139344	0	60.02811714306867	1.0476882879194	-5.292700394187906	0	0	-0.05151950650316931	-0.05064568984331542	0.9230765343656767	0.1486432103471476	-0.7565162459553672	1.380084047316889	1.263828708178545	1.829140791439328	0	0	0	-11.65693688573164	0	88.21538521734931	1.829140791439328	0	0
0.13	0.02313767446474171	0.2101817864923676	-90.6011622523077	0	0.9399999998679526	0	45.32498800704412	-10.64411485160207	0	60.02811224589146	1.047688202447534	-5.292406678729114	0	0	45.32498800704412	-10.64411485160207	0	60.02811224589146	1.047688202447534	-5.292406678729114	0	0	-0.04395499428667832	-0.01327412924417541	0.5514033509442081	0.245541121482584	-0.9103519953108203	1.768511711060157	1.360262537982824	1.828857761763111	0	0	0	-11.65731837659744	0	88.21566132552115	1.828857761763111	0	0
0.14	0.04777875292454241	0.2986406564404342	-90.79415420283564	0	0.9399999998679526	0	45.32495388672566	-10.64388422153182	0	60.02810989685953	1.047688161449192	-5.292270793862427	0	0	45.32495388672566	-10.64388422153182	0	60.02810989685953	1.047688161449192	-5.292270793862427	0	0	-0.06515758575635601	-0.03795923742011992	0.5835121153066259	0.3895194215032808	-1.056569080598414	2.188412234440036	1.426137345821798	1.828723131299602	0	0	0	-11.65750066529683	0	88.21579266366021	1.828723131299602	0	0
0.15	0.06589523821269518	0.2259833480793038	-90.90484196891839	0	0.9399999998679526	0	45.32486793698823	-10.64329252116502	0	60.02810406364557	1.047688059640403	-5.291920915965047	0	0	45.32486793698823	-10.64329252116502	0	60.02810406364557	1.047688059640403	-5.291920915965047	0	0	-0.2714303816421036	-0.05869498316168219	0.4850102870037958	0.5570205369062164	-1.221246149760924	2.631987933677012	1.450601173245593	1.828385865820832	0	0	0	-11.65795519682896	0	88.21612168129209	1.828385865820832	0	0
0.16	0.04395853970283717	0.2175545321412417	-90.71827677920479	0	0.9399999998679526	0	45.32477836069334	-10.64267457981064	0	60.02809799646013	1.047687953748041	-5.291555419003485	0	0	45.32477836069334	-10.64267457981064	0	60.02809799646013	1.047687953748041	-5.291555419003485	0	0	-0.4012155665962797	-0.03358617748739568	0.04763338547120857	0.7302904622044026	-1.38484769188698	3.211779594882181	1.492875913465084	1.828034622900233	0	0	0	-11.65842827101064	0	88.21646433452327	1.828034622900233	0	0
0.17	0.1059311976430813	0.2391753998721233	-91.0834893226797	0	0.9399999998679526	0	45.32466262054086	-10.64187996101298	0	60.0280901312126	1.047687816473575	-5.291085935187876	0	0	45.32466262054086	-10.64187996101298	0	60.0280901312126	1.047687816473575	-5.291085935187876	0	0	-0.5841998517020921	-0.1049702627370615	0.1594932012640014	0.9826896216333947	-1.520116734951806	3.819644974655419	1.452369147807484	1.827580177931639	0	0	0	-11.65904102890886	0	88.21690766604354	1.827580177931639	0	0
0.18	0.1546717594663821	0.4693468082873608	-91.59846217960011	0	0.9399999998679526	0	45.32459584922329	-10.64143038175374	0	60.02808552460088	1.047687736073033	-5.290821331618894	0	0	45.32459584922329	-10.64143038175374	0	60.02808552460088	1.047687736073033	-5.290821331618894	0	0	-0.542542616090852	-0.1436930878661125	0.362317181436301	1.20725249681216	-1.671790149080932	4.443542704434093	1.444955466067634	1.827316452984605	0	0	0	-11.65939840421573	0	88.21716494174976	1.827316452984605	0	0
0.19	0.1908632234929537	0.7211269921998782	-92.10924063203079	0	0.9399999998679526	0	45.32454337964924	-10.64107957845426	0	60.02808188640113	1.047687672574468	-5.290615175156457	0	0	45.32454337964924	-10.64107957845426	0	60.02808188640113	1.047687672574468	-5.290615175156457	0	0	-0.503827703912675	-0.1754897305197308	0.5673988480818589	1.450513088370332	-1.768804876487652	4.985031702641729	1.432413814709925	1.827108797959979	0	0	0	-11.65968026896246	0	88.21736751873134	1.827108797959979	0	0
0.2	0.2770282697255771	0.9280902675938645	-92.45804387778232	0	0.9399999998679526	0	45.32446752994245	-10.64056576883595	0	60.02807668272023	1.047687581753104	-5.290312496109672	0	0	45.32446752994245	-10.64056576883595	0	60.02807668272023	1.047687581753104	-5.290312496109672	0	0	-0.6058449744863623	-0.2598091273706757	0.4077740066835823	1.866030789441343	-1.851541405017053	5.719126607637926	1.345152433667158	1.82680983856616	0	0	0	-11.66008466415856	0	88.21765916718714	1.82680983856616	0	0
0.21	0.3403034733885104	1.244256876099859	-92.7376460082133	0	0.9399999998679526	0	45.32437144696765	-10.63990799391845	0	60.02807014969004	1.047687467730217	-5.28992429287862	0	0	45.32437144696765	-10.63990799391845	0	60.02807014969004	1.047687467730217	-5.28992429287862	0	0	-0.6137920691142031	-0.3231723895535567	0.2143379116513319	2.230145132976893	-1.866683075660977	6.334121010818578	1.294175404780901	1.826432415441143	0	0	0	-11.66059371342896	0	88.21802736045051	1.826432415441143	0	0
0.22	0.4142533500960364	1.554837233795737	-93.02136560912218	0	0.9399999998679526	0	45.3242672778174	-10.63919495987583	0	60.02806306984488	1.047687344163608	-5.289503561395363	0	0	45.3242672778174	-10.63919495987583	0	60.02806306984488	1.047687344163608	-5.289503561395363	0	0	-0.6136767553330309	-0.3858888780176633	0.02968360718304294	2.548490580841552	-1.811428470572569	6.941355556583037	1.317453582814999	1.826023267769667	0	0	0	-11.6611454950684	0	88.21842650243569	1.826023267769667	0	0
